<svg width="12" height="12" viewBox="0 0 12 12" fill="none" xmlns="http://www.w3.org/2000/svg">
<path d="M10.6916 0.649414H9.57009V1.74941C9.57009 1.96941 9.38318 2.11608 9.19626 2.11608C9.00935 2.11608 8.82243 1.96941 8.82243 1.74941V0.649414H2.84112V1.74941C2.84112 1.96941 2.65421 2.11608 2.46729 2.11608C2.28037 2.11608 2.09346 1.96941 2.09346 1.74941V0.649414H0.971963C0.411215 0.649414 0 1.12608 0 1.74941V3.06941H11.9626V1.74941C11.9626 1.12608 11.2897 0.649414 10.6916 0.649414ZM0 3.83941V10.5494C0 11.2094 0.411215 11.6494 1.00935 11.6494H10.729C11.3271 11.6494 12 11.1727 12 10.5494V3.83941H0ZM3.3271 9.99941H2.42991C2.28037 9.99941 2.13084 9.88941 2.13084 9.70608V8.78941C2.13084 8.64275 2.24299 8.49608 2.42991 8.49608H3.36449C3.51402 8.49608 3.66355 8.60608 3.66355 8.78941V9.70608C3.62617 9.88941 3.51402 9.99941 3.3271 9.99941ZM3.3271 6.69941H2.42991C2.28037 6.69941 2.13084 6.58941 2.13084 6.40608V5.48941C2.13084 5.34275 2.24299 5.19608 2.42991 5.19608H3.36449C3.51402 5.19608 3.66355 5.30608 3.66355 5.48941V6.40608C3.62617 6.58941 3.51402 6.69941 3.3271 6.69941ZM6.31776 9.99941H5.38318C5.23365 9.99941 5.08411 9.88941 5.08411 9.70608V8.78941C5.08411 8.64275 5.19626 8.49608 5.38318 8.49608H6.31776C6.46729 8.49608 6.61682 8.60608 6.61682 8.78941V9.70608C6.61682 9.88941 6.50467 9.99941 6.31776 9.99941ZM6.31776 6.69941H5.38318C5.23365 6.69941 5.08411 6.58941 5.08411 6.40608V5.48941C5.08411 5.34275 5.19626 5.19608 5.38318 5.19608H6.31776C6.46729 5.19608 6.61682 5.30608 6.61682 5.48941V6.40608C6.61682 6.58941 6.50467 6.69941 6.31776 6.69941ZM9.30841 9.99941H8.37383C8.2243 9.99941 8.07477 9.88941 8.07477 9.70608V8.78941C8.07477 8.64275 8.18692 8.49608 8.37383 8.49608H9.30841C9.45794 8.49608 9.60748 8.60608 9.60748 8.78941V9.70608C9.60748 9.88941 9.49533 9.99941 9.30841 9.99941ZM9.30841 6.69941H8.37383C8.2243 6.69941 8.07477 6.58941 8.07477 6.40608V5.48941C8.07477 5.34275 8.18692 5.19608 8.37383 5.19608H9.30841C9.45794 5.19608 9.60748 5.30608 9.60748 5.48941V6.40608C9.60748 6.58941 9.49533 6.69941 9.30841 6.69941Z" fill="#FF7B00"/>
</svg>
